<?xml version="1.0" standalone="no"?>
<!DOCTYPE svg PUBLIC "-//W3C//DTD SVG 1.1//EN" "http://www.w3.org/Graphics/SVG/1.1/DTD/svg11.dtd" >
<svg xmlns="http://www.w3.org/2000/svg">
<metadata></metadata>
<defs>
<font id="webfontregular" horiz-adv-x="350" >
<font-face units-per-em="2048" ascent="1638" descent="-410" />
<missing-glyph horiz-adv-x="450" />
<glyph horiz-adv-x="2048" />
<glyph horiz-adv-x="2048" />
<glyph unicode="&#xd;" horiz-adv-x="450" />
<glyph unicode=" "  horiz-adv-x="450" />
<glyph unicode="&#x09;" horiz-adv-x="450" />
<glyph unicode="&#xa0;" horiz-adv-x="450" />
<glyph unicode="*" horiz-adv-x="250" d="M50 -250v2050h50v-2050h-50zM150 -250v2050h50v-2050h-50z" />
<glyph unicode="+" horiz-adv-x="500" d="M0 -250v2050h50v-2050h-50zM100 -250v2050h50v-2050h-50z" />
<glyph unicode="0" horiz-adv-x="700" d="M150 -300q0 80 32 139q34 61 88 61q53 0 87 -61q32 -58 32 -139q0 -80 -32 -138q-34 -62 -87 -62q-54 0 -88 62q-32 58 -32 138zM197 -300q0 -61 18 -103q20 -48 55 -48q34 0 54 48q19 43 19 104t-19 103q-20 48 -54 48q-35 0 -55 -48q-18 -43 -18 -104zM550 -250v2050 h50v-2050h-50zM650 -250v2050h50v-2050h-50z" />
<glyph unicode="1" horiz-adv-x="700" d="M203 -200q41 20 72 47.5t43 52.5h32v-400h-49v312q-18 -17 -46.5 -33.5t-51.5 -25.5v47zM550 -250v2050h50v-2050h-50zM650 -250v2050h50v-2050h-50z" />
<glyph unicode="2" horiz-adv-x="700" d="M156 -500q10 41 20 81q15 49 42 85q35 47 99 83q32 19 32 52q0 21 -14.5 35.5t-38.5 14.5q-30 0 -45 -9q-19 -11 -30 -39q-6 -14 -20 -14q-9 0 -16.5 6.5t-7.5 16.5q0 5 2 11q31 77 114 77q50 0 80 -28q27 -27 27 -67q0 -63 -61.5 -99t-90.5 -82q-18 -28 -30 -74h154 q24 0 24 -25t-24 -25h-216zM550 -250v2050h50v-2050h-50zM650 -250v2050h50v-2050h-50z" />
<glyph unicode="3" horiz-adv-x="700" d="M127 -396q0 11 7 17.5t17 6.5q16 0 21 -17q9 -28 30 -44q20 -15 44 -15q33 0 56 24q25 27 25 70q0 45 -26 69q-20 17 -53 22q-17 1 -35 3q-10 0 -16.5 6t-6.5 13q0 11 10 22l67 71h-100q-23 0 -23 24t23 24h176q16 0 16 -12q0 -8 -21 -30l-69 -74q105 -21 105 -138 q0 -67 -40 -108q-36 -37 -87 -37q-39 0 -70 24q-35 25 -49 71q-1 4 -1 8zM550 -250v2050h50v-2050h-50zM650 -250v2050h50v-2050h-50z" />
<glyph unicode="4" horiz-adv-x="700" d="M131 -412q0 11 3 22l95 273q6 16 22 16q10 0 18 -6.5t8 -16.5q0 -5 -2 -9l-87 -256h125v68q0 24 24 24t24 -24v-68h32q25 0 25 -24t-25 -24h-31v-38q0 -25 -24 -25t-24 25v38h-167q-16 0 -16 25zM550 -250v2050h50v-2050h-50zM650 -250v2050h50v-2050h-50z" />
<glyph unicode="5" horiz-adv-x="700" d="M150 -393q0 10 7.5 16.5t17.5 6.5q15 0 21 -15q25 -69 80 -66q35 3 53 30q17 24 17 62q0 37 -23 63.5t-54 26.5q-43 0 -69 -21q-14 -12 -23 -12q-19 0 -19 22v180h182q24 0 24 -23q0 -25 -24 -25h-135v-84q27 12 64 12q48 0 86 -41.5t38 -97.5q0 -59 -27 -96 q-31 -40 -87 -45q-55 4 -83 28q-29 24 -44 70q-2 4 -2 9zM550 -250v2050h50v-2050h-50zM650 -250v2050h50v-2050h-50z" />
<glyph unicode="6" horiz-adv-x="700" d="M150 -342q0 35 10 70q15 54 44 91q33 42 92 77q6 4 11 4q10 0 16.5 -8t6.5 -18q0 -13 -11 -20q-34 -20 -56 -43q-19 -20 -43 -55q28 17 65 17q60 0 93.5 -33.5t33.5 -94.5q0 -64 -34.5 -104.5t-89.5 -40.5q-69 0 -105 49q-33 42 -33 109zM189 -364q0 -36 25.5 -62 t61.5 -26q34 0 57 30q20 28 20 67q0 33 -23.5 56.5t-56.5 23.5q-35 0 -59.5 -26t-24.5 -63zM550 -250v2050h50v-2050h-50zM650 -250v2050h50v-2050h-50z" />
<glyph unicode="7" horiz-adv-x="700" d="M150 -102h261v-38q-38 -41 -76 -109t-59 -140q-14 -50 -19 -111h-50q0 48 18 115.5t51.5 130t71.5 105.5h-198v47zM550 -250v2050h50v-2050h-50zM650 -250v2050h50v-2050h-50z" />
<glyph unicode="8" horiz-adv-x="700" d="M150 -380q0 39 19.5 64.5t55.5 35.5q-30 11 -44.5 31t-14.5 48q0 43 30.5 72t81.5 29t82.5 -29.5t31.5 -72.5q0 -27 -14.5 -47t-43.5 -31q36 -12 55 -38.5t19 -62.5q0 -50 -35.5 -84.5t-93.5 -34.5t-93.5 34.5t-35.5 85.5zM199 -380q0 -20 10 -39.5t29 -30t42 -10.5 q34 0 56.5 22t22.5 57q0 34 -23 57t-58 23q-34 0 -56.5 -22.5t-22.5 -56.5zM215 -199q0 -28 18 -45.5t46 -17.5t46 17.5t18 42.5q0 27 -18.5 45t-45.5 18q-28 0 -46 -17.5t-18 -42.5zM550 -250v2050h50v-2050h-50zM650 -250v2050h50v-2050h-50z" />
<glyph unicode="9" horiz-adv-x="700" d="M150 -245q0 64 34.5 104.5t89.5 40.5q69 0 106 -48q33 -43 33 -110q0 -35 -10 -70q-15 -54 -45 -92q-32 -41 -91 -77q-6 -4 -12 -4q-10 0 -16.5 8t-6.5 18q0 13 11 20q34 21 56 44q20 19 44 55q-28 -17 -66 -17q-60 0 -93.5 33.5t-33.5 94.5zM197 -245q0 -33 23.5 -56.5 t56.5 -23.5q35 0 60 26t25 63q0 36 -26 62t-62 26q-34 0 -57 -30q-20 -29 -20 -67zM550 -250v2050h50v-2050h-50zM650 -250v2050h50v-2050h-50z" />
<glyph unicode=":" horiz-adv-x="150" d="M0 -250v2050h50v-2050h-50zM100 -250v2050h50v-2050h-50z" />
<glyph unicode="A" d="M61 -300q0 80 32 139q34 61 88 61q53 0 87 -61q32 -58 32 -139q0 -80 -32 -138q-34 -62 -87 -62q-54 0 -88 62q-32 58 -32 138zM108 -300q0 -61 18 -103q20 -48 55 -48q34 0 54 48q19 43 19 104t-19 103q-20 48 -54 48q-35 0 -55 -48q-18 -43 -18 -104zM150 1v1799h100 v-1799h-100zM300 0v1800h50v-1800h-50z" />
<glyph unicode="B" d="M100 1v1799h100v-1799h-100zM106 -200q41 20 72 47.5t43 52.5h32v-400h-49v312q-18 -17 -46.5 -33.5t-51.5 -25.5v47zM300 0v1800h50v-1800h-50z" />
<glyph unicode="C" d="M56 -500q10 41 20 81q15 49 42 85q35 47 99 83q32 19 32 52q0 21 -14.5 35.5t-38.5 14.5q-30 0 -45 -9q-19 -11 -30 -39q-6 -14 -20 -14q-9 0 -16.5 6.5t-7.5 16.5q0 5 2 11q31 77 114 77q50 0 80 -28q27 -27 27 -67q0 -63 -61.5 -99t-90.5 -82q-18 -28 -30 -74h154 q24 0 24 -25t-24 -25h-216zM100 0v1800h50v-1800h-50zM250 1v1799h100v-1799h-100z" />
<glyph unicode="D" d="M50 1v1799h201v-1799h-201zM53 -397q0 11 7 17.5t17 6.5q16 0 21 -17q9 -28 30 -44q20 -15 44 -15q33 0 56 24q26 27 26 70q0 45 -27 69q-20 17 -53 22q-17 1 -35 3q-10 0 -16.5 6t-6.5 13q0 11 10 22l67 71h-100q-23 0 -23 24t23 24h176q16 0 16 -12q0 -8 -21 -30 l-69 -74q105 -21 105 -138q0 -67 -39 -108q-36 -37 -87 -37q-40 0 -71 24q-34 25 -49 71q-1 4 -1 8zM300 0v1800h50v-1800h-50z" />
<glyph unicode="E" d="M34 -411q0 11 3 22l95 273q6 16 22 16q9 0 17.5 -6.5t8.5 -16.5q0 -5 -2 -9l-88 -256h126v68q0 24 24 24t24 -24v-68h32q25 0 25 -24t-25 -24h-32v-38q0 -25 -23 -25q-24 0 -24 25v38h-167q-16 0 -16 25zM50 0v1800h50v-1800h-50zM250 0v1800h100v-1800h-100z" />
<glyph unicode="F" d="M50 0v1800h100v-1800h-100zM57 -393q0 10 7.5 16.5t17.5 6.5q15 0 21 -15q24 -66 75 -66h5q35 3 53 30q17 24 17 62q0 37 -23 63.5t-54 26.5q-43 0 -69 -21q-14 -12 -23 -12q-19 0 -19 22v180h182q24 0 24 -23q0 -25 -24 -25h-135v-84q27 12 64 12q48 0 86 -41.5 t38 -97.5q0 -59 -27 -96q-31 -40 -87 -45q-55 4 -83 28q-29 24 -44 70q-2 4 -2 9zM300 0v1800h50v-1800h-50z" />
<glyph unicode="G" d="M44 -340q0 35 10 70q15 54 44 91q33 42 92 77q6 4 11 4q10 0 16.5 -8t6.5 -18q0 -13 -11 -20q-34 -20 -56 -43q-19 -20 -43 -55q28 17 65 17q60 0 93.5 -33.5t33.5 -94.5q0 -64 -34.5 -104.5t-89.5 -40.5q-69 0 -105 49q-33 42 -33 109zM50 0v1800h50v-1800h-50zM95 -362 q0 -36 25.5 -62t61.5 -26q34 0 57 30q20 28 20 67q0 33 -23.5 56.5t-56.5 23.5q-35 0 -59.5 -26t-24.5 -63zM150 1v1799h200v-1799h-200z" />
<glyph unicode="H" d="M45 -100h261v-38q-38 -41 -76 -109t-59 -140q-14 -50 -19 -111h-50q0 48 18 115.5t51.5 130t71.5 105.5h-198v47zM50 0v1800h150v-1800h-150zM250 1v1799h100v-1799h-100z" />
<glyph unicode="I" d="M42 -380q0 39 19.5 64.5t55.5 35.5q-30 11 -44.5 31t-14.5 48q0 43 30.5 72t81.5 29t82.5 -29.5t31.5 -72.5q0 -27 -14.5 -47t-43.5 -31q36 -12 55 -38.5t19 -62.5q0 -50 -35.5 -84.5t-93.5 -34.5t-93.5 34.5t-35.5 85.5zM50 1v1799h100v-1799h-100zM91 -380 q0 -20 10 -39.5t29 -30t42 -10.5q34 0 56.5 22t22.5 57q0 34 -23 57t-58 23q-34 0 -56.5 -22.5t-22.5 -56.5zM107 -199q0 -28 18 -45.5t46 -17.5t46 17.5t18 42.5q0 27 -18.5 45t-45.5 18q-28 0 -46 -17.5t-18 -42.5zM200 0v1800h150v-1800h-150z" />
<glyph unicode="J" d="M50 -244q0 64 34.5 104.5t89.5 40.5q69 0 106 -48q33 -43 33 -110q0 -35 -10 -70q-15 -54 -45 -92q-32 -41 -91 -77q-6 -4 -12 -4q-10 0 -16.5 8t-6.5 18q0 13 11 20q34 21 56 44q20 19 44 55q-28 -17 -66 -17q-60 0 -93.5 33.5t-33.5 94.5zM97 -244q0 -33 23.5 -56.5 t56.5 -23.5q35 0 60 26t25 63q0 36 -26 62t-62 26q-34 0 -57 -30q-20 -29 -20 -67zM150 0v1800h50v-1800h-50zM250 0v1800h100v-1800h-100z" />
<glyph unicode="K" d="M53 0v1800h50v-1800h-50zM61 -300q0 80 32 139q34 61 88 61q53 0 87 -61q32 -58 32 -139q0 -80 -32 -138q-34 -62 -87 -62q-54 0 -88 62q-32 58 -32 138zM108 -300q0 -61 18 -103q20 -48 55 -48q34 0 54 48q19 43 19 104t-19 103q-20 48 -54 48q-35 0 -55 -48 q-18 -43 -18 -104zM201 1v1799h150v-1799h-150z" />
<glyph unicode="L" d="M50 1v1799h100v-1799h-100zM106 -200q41 20 72 47.5t43 52.5h32v-400h-49v312q-18 -17 -46.5 -33.5t-51.5 -25.5v47zM250 1v1799h100v-1799h-100z" />
<glyph unicode="M" d="M56 -500q10 41 20 81q15 49 42 85q35 47 99 83q32 19 32 52q0 21 -14.5 35.5t-38.5 14.5q-30 0 -45 -9q-19 -11 -30 -39q-6 -14 -20 -14q-9 0 -16.5 6.5t-7.5 16.5q0 5 2 11q31 77 114 77q50 0 80 -28q27 -27 27 -67q0 -63 -61.5 -99t-90.5 -82q-18 -28 -30 -74h154 q24 0 24 -25t-24 -25h-216zM100 1v1799h100v-1799h-100zM250 0v1800h100v-1800h-100z" />
<glyph unicode="N" d="M50 0v1800h50v-1800h-50zM53 -397q0 11 7 17.5t17 6.5q16 0 21 -17q9 -28 30 -44q20 -15 44 -15q33 0 56 24q26 27 26 70q0 45 -27 69q-20 17 -53 22q-17 1 -35 3q-10 0 -16.5 6t-6.5 13q0 11 10 22l67 71h-100q-23 0 -23 24t23 24h176q16 0 16 -12q0 -8 -21 -30l-69 -74 q105 -21 105 -138q0 -67 -39 -108q-36 -37 -87 -37q-40 0 -71 24q-34 25 -49 71q-1 4 -1 8zM300 0v1800h50v-1800h-50z" />
<glyph unicode="O" d="M34 -411q0 11 3 22l95 273q6 16 22 16q9 0 17.5 -6.5t8.5 -16.5q0 -5 -2 -9l-88 -256h126v68q0 24 24 24t24 -24v-68h32q25 0 25 -24t-25 -24h-32v-38q0 -25 -23 -25q-24 0 -24 25v38h-167q-16 0 -16 25zM100 0v1800h153v-1800h-153zM300 1v1799h50v-1799h-50z" />
<glyph unicode="P" d="M50 0v1800h150v-1800h-150zM57 -393q0 10 7.5 16.5t17.5 6.5q15 0 21 -15q24 -66 75 -66h5q35 3 53 30q17 24 17 62q0 37 -23 63.5t-54 26.5q-43 0 -69 -21q-14 -12 -23 -12q-19 0 -19 22v180h182q24 0 24 -23q0 -25 -24 -25h-135v-84q27 12 64 12q48 0 86 -41.5 t38 -97.5q0 -59 -27 -96q-31 -40 -87 -45q-55 4 -83 28q-29 24 -44 70q-2 4 -2 9zM300 0v1800h50v-1800h-50z" />
<glyph unicode="Q" d="M44 -340q0 35 10 70q15 54 44 91q33 42 92 77q6 4 11 4q10 0 16.5 -8t6.5 -18q0 -13 -11 -20q-34 -20 -56 -43q-19 -20 -43 -55q28 17 65 17q60 0 93.5 -33.5t33.5 -94.5q0 -64 -34.5 -104.5t-89.5 -40.5q-69 0 -105 49q-33 42 -33 109zM95 -362q0 -36 25.5 -62t61.5 -26 q34 0 57 30q20 28 20 67q0 33 -23.5 56.5t-56.5 23.5q-35 0 -59.5 -26t-24.5 -63zM200 0v1800h50v-1800h-50zM300 0v1800h50v-1800h-50z" />
<glyph unicode="R" d="M45 -100h261v-38q-38 -41 -76 -109t-59 -140q-14 -50 -19 -111h-50q0 48 18 115.5t51.5 130t71.5 105.5h-198v47zM100 1v1799h50v-1799h-50zM300 1v1799h50v-1799h-50z" />
<glyph unicode="S" d="M42 -380q0 39 19.5 64.5t55.5 35.5q-30 11 -44.5 31t-14.5 48q0 43 30.5 72t81.5 29t82.5 -29.5t31.5 -72.5q0 -27 -14.5 -47t-43.5 -31q36 -12 55 -38.5t19 -62.5q0 -50 -35.5 -84.5t-93.5 -34.5t-93.5 34.5t-35.5 85.5zM91 -380q0 -20 10 -39.5t29 -30t42 -10.5 q34 0 56.5 22t22.5 57q0 34 -23 57t-58 23q-34 0 -56.5 -22.5t-22.5 -56.5zM107 -199q0 -28 18 -45.5t46 -17.5t46 17.5t18 42.5q0 27 -18.5 45t-45.5 18q-28 0 -46 -17.5t-18 -42.5zM150 1v1799h50v-1799h-50zM300 1v1799h50v-1799h-50z" />
<glyph unicode="T" d="M50 -244q0 64 34.5 104.5t89.5 40.5q69 0 106 -48q33 -43 33 -110q0 -35 -10 -70q-15 -54 -45 -92q-32 -41 -91 -77q-6 -4 -12 -4q-10 0 -16.5 8t-6.5 18q0 13 11 20q34 21 56 44q20 19 44 55q-28 -17 -66 -17q-60 0 -93.5 33.5t-33.5 94.5zM97 -244q0 -33 23.5 -56.5 t56.5 -23.5q35 0 60 26t25 63q0 36 -26 62t-62 26q-34 0 -57 -30q-20 -29 -20 -67zM100 0v1800h50v-1800h-50zM200 0v1800h149v-1800h-149z" />
<glyph unicode="[" horiz-adv-x="200" d="M0 0v1800h50v-1800h-50zM100 1v1799h100v-1799h-100z" />
<glyph unicode="\" horiz-adv-x="100" d="M50 0v1800h50v-1800h-50z" />
<glyph unicode="a" d="M0 0v1800h150v-1800h-150zM61 -300q0 80 32 139q34 61 88 61q53 0 87 -61q32 -58 32 -139q0 -80 -32 -138q-34 -62 -87 -62q-54 0 -88 62q-32 58 -32 138zM108 -300q0 -61 18 -103q20 -48 55 -48q34 0 54 48q19 43 19 104t-19 103q-20 48 -54 48q-35 0 -55 -48 q-18 -43 -18 -104zM250 0v1800h50v-1800h-50z" />
<glyph unicode="b" d="M0 1v1799h100v-1799h-100zM106 -200q41 20 72 47.5t43 52.5h32v-400h-49v312q-18 -17 -46.5 -33.5t-51.5 -25.5v47zM200 1v1799h100v-1799h-100z" />
<glyph unicode="c" d="M0 0v1800h100v-1800h-100zM56 -500q10 41 20 81q15 49 42 85q35 47 99 83q32 19 32 52q0 21 -14.5 35.5t-38.5 14.5q-30 0 -45 -9q-19 -11 -30 -39q-6 -14 -20 -14q-9 0 -16.5 6.5t-7.5 16.5q0 5 2 11q31 77 114 77q50 0 80 -28q27 -27 27 -67q0 -63 -61.5 -99t-90.5 -82 q-18 -28 -30 -74h154q24 0 24 -25t-24 -25h-216zM150 1v1799h100v-1799h-100z" />
<glyph unicode="d" d="M0 0v1800h50v-1800h-50zM53 -397q0 11 7 17.5t17 6.5q16 0 21 -17q9 -28 30 -44q20 -15 44 -15q33 0 56 24q26 27 26 70q0 45 -27 69q-20 17 -53 22q-17 1 -35 3q-10 0 -16.5 6t-6.5 13q0 11 10 22l67 71h-100q-23 0 -23 24t23 24h176q16 0 16 -12q0 -8 -21 -30l-69 -74 q105 -21 105 -138q0 -67 -39 -108q-36 -37 -87 -37q-40 0 -71 24q-34 25 -49 71q-1 4 -1 8zM250 0v1800h50v-1800h-50z" />
<glyph unicode="e" d="M0 1v1799h50v-1799h-50zM34 -411q0 11 3 22l95 273q6 16 22 16q9 0 17.5 -6.5t8.5 -16.5q0 -5 -2 -9l-88 -256h126v68q0 24 24 24t24 -24v-68h32q25 0 25 -24t-25 -24h-32v-38q0 -25 -23 -25q-24 0 -24 25v38h-167q-16 0 -16 25zM100 0v1800h153v-1800h-153z" />
<glyph unicode="f" d="M0 0v1800h50v-1800h-50zM57 -393q0 10 7.5 16.5t17.5 6.5q15 0 21 -15q24 -66 75 -66h5q35 3 53 30q17 24 17 62q0 37 -23 63.5t-54 26.5q-43 0 -69 -21q-14 -12 -23 -12q-19 0 -19 22v180h182q24 0 24 -23q0 -25 -24 -25h-135v-84q27 12 64 12q48 0 86 -41.5t38 -97.5 q0 -59 -27 -96q-31 -40 -87 -45q-55 4 -83 28q-29 24 -44 70q-2 4 -2 9zM150 1v1799h150v-1799h-150z" />
<glyph unicode="g" d="M0 0v1800h50v-1800h-50zM44 -340q0 35 10 70q15 54 44 91q33 42 92 77q6 4 11 4q10 0 16.5 -8t6.5 -18q0 -13 -11 -20q-34 -20 -56 -43q-19 -20 -43 -55q28 17 65 17q60 0 93.5 -33.5t33.5 -94.5q0 -64 -34.5 -104.5t-89.5 -40.5q-69 0 -105 49q-33 42 -33 109zM95 -362 q0 -36 25.5 -62t61.5 -26q34 0 57 30q20 28 20 67q0 33 -23.5 56.5t-56.5 23.5q-35 0 -59.5 -26t-24.5 -63zM100 0v1800h50v-1800h-50z" />
<glyph unicode="h" d="M0 1v1799h50v-1799h-50zM45 -100h261v-38q-38 -41 -76 -109t-59 -140q-14 -50 -19 -111h-50q0 48 18 115.5t51.5 130t71.5 105.5h-198v47zM200 1v1799h50v-1799h-50z" />
<glyph unicode="i" d="M0 1v1799h50v-1799h-50zM42 -380q0 39 19.5 64.5t55.5 35.5q-30 11 -44.5 31t-14.5 48q0 43 30.5 72t81.5 29t82.5 -29.5t31.5 -72.5q0 -27 -14.5 -47t-43.5 -31q36 -12 55 -38.5t19 -62.5q0 -50 -35.5 -84.5t-93.5 -34.5t-93.5 34.5t-35.5 85.5zM91 -380q0 -20 10 -39.5 t29 -30t42 -10.5q34 0 56.5 22t22.5 57q0 34 -23 57t-58 23q-34 0 -56.5 -22.5t-22.5 -56.5zM107 -199q0 -28 18 -45.5t46 -17.5t46 17.5t18 42.5q0 27 -18.5 45t-45.5 18q-28 0 -46 -17.5t-18 -42.5zM150 1v1799h50v-1799h-50z" />
<glyph unicode="j" d="M0 1v1799h150v-1799h-150zM50 -244q0 64 34.5 104.5t89.5 40.5q69 0 106 -48q33 -43 33 -110q0 -35 -10 -70q-15 -54 -45 -92q-32 -41 -91 -77q-6 -4 -12 -4q-10 0 -16.5 8t-6.5 18q0 13 11 20q34 21 56 44q20 19 44 55q-28 -17 -66 -17q-60 0 -93.5 33.5t-33.5 94.5z M97 -244q0 -33 23.5 -56.5t56.5 -23.5q35 0 60 26t25 63q0 36 -26 62t-62 26q-34 0 -57 -30q-20 -29 -20 -67zM200 0v1800h50v-1800h-50z" />
<glyph unicode="k" horiz-adv-x="550" d="M150 -300q0 80 32 139q34 61 88 61q53 0 87 -61q32 -58 32 -139q0 -80 -32 -138q-34 -62 -87 -62q-54 0 -88 62q-32 58 -32 138zM197 -300q0 -61 18 -103q20 -48 55 -48q34 0 54 48q19 43 19 104t-19 103q-20 48 -54 48q-35 0 -55 -48q-18 -43 -18 -104z" />
<glyph unicode="l" horiz-adv-x="550" d="M203 -200q41 20 72 47.5t43 52.5h32v-400h-49v312q-18 -17 -46.5 -33.5t-51.5 -25.5v47z" />
<glyph unicode="m" horiz-adv-x="550" d="M156 -500q10 41 20 81q15 49 42 85q35 47 99 83q32 19 32 52q0 21 -14.5 35.5t-38.5 14.5q-30 0 -45 -9q-19 -11 -30 -39q-6 -14 -20 -14q-9 0 -16.5 6.5t-7.5 16.5q0 5 2 11q31 77 114 77q50 0 80 -28q27 -27 27 -67q0 -63 -61.5 -99t-90.5 -82q-18 -28 -30 -74h154 q24 0 24 -25t-24 -25h-216z" />
<glyph unicode="n" horiz-adv-x="550" d="M127 -396q0 11 7 17.5t17 6.5q16 0 21 -17q9 -28 30 -44q20 -15 44 -15q33 0 56 24q25 27 25 70q0 45 -26 69q-20 17 -53 22q-17 1 -35 3q-10 0 -16.5 6t-6.5 13q0 11 10 22l67 71h-100q-23 0 -23 24t23 24h176q16 0 16 -12q0 -8 -21 -30l-69 -74q105 -21 105 -138 q0 -67 -40 -108q-36 -37 -87 -37q-39 0 -70 24q-35 25 -49 71q-1 4 -1 8z" />
<glyph unicode="o" horiz-adv-x="550" d="M131 -412q0 11 3 22l95 273q6 16 22 16q10 0 18 -6.5t8 -16.5q0 -5 -2 -9l-87 -256h125v68q0 24 24 24t24 -24v-68h32q25 0 25 -24t-25 -24h-31v-38q0 -25 -24 -25t-24 25v38h-167q-16 0 -16 25z" />
<glyph unicode="p" horiz-adv-x="550" d="M150 -393q0 10 7.5 16.5t17.5 6.5q15 0 21 -15q24 -66 75 -66h5q35 3 53 30q17 24 17 62q0 37 -23 63.5t-54 26.5q-43 0 -69 -21q-14 -12 -23 -12q-19 0 -19 22v180h182q24 0 24 -23q0 -25 -24 -25h-135v-84q27 12 64 12q48 0 86 -41.5t38 -97.5q0 -59 -27 -96 q-31 -40 -87 -45q-55 4 -83 28q-29 24 -44 70q-2 4 -2 9z" />
<glyph unicode="q" horiz-adv-x="550" d="M150 -342q0 35 10 70q15 54 44 91q33 42 92 77q6 4 11 4q10 0 16.5 -8t6.5 -18q0 -13 -11 -20q-34 -20 -56 -43q-19 -20 -43 -55q28 17 65 17q60 0 93.5 -33.5t33.5 -94.5q0 -64 -34.5 -104.5t-89.5 -40.5q-69 0 -105 49q-33 42 -33 109zM189 -364q0 -36 25.5 -62 t61.5 -26q34 0 57 30q20 28 20 67q0 33 -23.5 56.5t-56.5 23.5q-35 0 -59.5 -26t-24.5 -63z" />
<glyph unicode="r" horiz-adv-x="550" d="M150 -102h261v-38q-38 -41 -76 -109t-59 -140q-14 -50 -19 -111h-50q0 48 18 115.5t51.5 130t71.5 105.5h-198v47z" />
<glyph unicode="s" horiz-adv-x="550" d="M150 -380q0 39 19.5 64.5t55.5 35.5q-30 11 -44.5 31t-14.5 48q0 43 30.5 72t81.5 29t82.5 -29.5t31.5 -72.5q0 -27 -14.5 -47t-43.5 -31q36 -12 55 -38.5t19 -62.5q0 -50 -35.5 -84.5t-93.5 -34.5t-93.5 34.5t-35.5 85.5zM199 -380q0 -20 10 -39.5t29 -30t42 -10.5 q34 0 56.5 22t22.5 57q0 34 -23 57t-58 23q-34 0 -56.5 -22.5t-22.5 -56.5zM215 -199q0 -28 18 -45.5t46 -17.5t46 17.5t18 42.5q0 27 -18.5 45t-45.5 18q-28 0 -46 -17.5t-18 -42.5z" />
<glyph unicode="t" horiz-adv-x="550" d="M150 -245q0 64 34.5 104.5t89.5 40.5q69 0 106 -48q33 -43 33 -110q0 -35 -10 -70q-15 -54 -45 -92q-32 -41 -91 -77q-6 -4 -12 -4q-10 0 -16.5 8t-6.5 18q0 13 11 20q34 21 56 44q20 19 44 55q-28 -17 -66 -17q-60 0 -93.5 33.5t-33.5 94.5zM197 -245q0 -33 23.5 -56.5 t56.5 -23.5q35 0 60 26t25 63q0 36 -26 62t-62 26q-34 0 -57 -30q-20 -29 -20 -67z" />
<glyph unicode="&#x2000;" horiz-adv-x="900" />
<glyph unicode="&#x2001;" horiz-adv-x="1800" />
<glyph unicode="&#x2002;" horiz-adv-x="900" />
<glyph unicode="&#x2003;" horiz-adv-x="1800" />
<glyph unicode="&#x2004;" horiz-adv-x="600" />
<glyph unicode="&#x2005;" horiz-adv-x="450" />
<glyph unicode="&#x2006;" horiz-adv-x="300" />
<glyph unicode="&#x2007;" horiz-adv-x="300" />
<glyph unicode="&#x2008;" horiz-adv-x="225" />
<glyph unicode="&#x2009;" horiz-adv-x="360" />
<glyph unicode="&#x200a;" horiz-adv-x="100" />
<glyph unicode="&#x202f;" horiz-adv-x="360" />
<glyph unicode="&#x205f;" horiz-adv-x="450" />
<glyph unicode="&#xe000;" horiz-adv-x="500" d="M0 0z" />
</font>
</defs>
</svg>
